<svg width="111" height="49" viewBox="0 0 111 49" fill="none" xmlns="http://www.w3.org/2000/svg">
<g clip-path="url(#clip0_402_217)">
<path d="M37.582 37.9477V29.9787H40.2813V37.9477H37.582ZM40.2789 21.6231H41.4106C41.7918 21.6231 42.1229 21.5519 42.4064 21.4072C42.6971 21.2626 42.921 21.0515 43.0807 20.7692C43.2403 20.4799 43.3213 20.1313 43.3213 19.7209C43.3213 19.3106 43.2403 18.9762 43.0807 18.6964C42.921 18.4165 42.6947 18.203 42.4064 18.0584C42.1253 17.9137 41.7918 17.8425 41.4106 17.8425H40.2789V21.6231ZM37.582 23.7173V15.7483H41.5273C42.4183 15.7483 43.2045 15.9119 43.8835 16.2369C44.5625 16.5547 45.0914 17.0101 45.4726 17.603C45.8538 18.1959 46.0444 18.9003 46.0444 19.7209C46.0444 20.5416 45.8538 21.2626 45.4726 21.8602C45.0914 22.4532 44.5625 22.9109 43.8835 23.2382C43.2045 23.556 42.4207 23.7173 41.5273 23.7173H37.582ZM37.582 9.72409V1.75507H40.2813V9.72409H37.582Z" fill="white"/>
<path d="M37.582 37.9477V29.9787H40.2813V37.9477H37.582ZM40.2789 21.6231H41.4106C41.7918 21.6231 42.1229 21.5519 42.4064 21.4072C42.6971 21.2626 42.921 21.0515 43.0807 20.7692C43.2403 20.4799 43.3213 20.1313 43.3213 19.7209C43.3213 19.3106 43.2403 18.9762 43.0807 18.6964C42.921 18.4165 42.6947 18.203 42.4064 18.0584C42.1253 17.9137 41.7918 17.8425 41.4106 17.8425H40.2789V21.6231ZM37.582 23.7173V15.7483H41.5273C42.4183 15.7483 43.2045 15.9119 43.8835 16.2369C44.5625 16.5547 45.0914 17.0101 45.4726 17.603C45.8538 18.1959 46.0444 18.9003 46.0444 19.7209C46.0444 20.5416 45.8538 21.2626 45.4726 21.8602C45.0914 22.4532 44.5625 22.9109 43.8835 23.2382C43.2045 23.556 42.4207 23.7173 41.5273 23.7173H37.582ZM37.582 9.72409V1.75507H40.2813V9.72409H37.582Z" fill="#EB4B53"/>
<path d="M75.1002 23.7173V15.2692H77.6851V23.7173H75.1002ZM69.8088 23.8311C69.299 23.8311 68.8701 23.7434 68.5271 23.5703C68.184 23.3971 67.9243 23.1647 67.7504 22.8753C67.5741 22.5789 67.4883 22.2539 67.4883 21.8958C67.4883 21.4926 67.5908 21.1511 67.798 20.8712C68.0029 20.5914 68.3174 20.3779 68.7367 20.2332C69.1632 20.0885 69.7016 20.0174 70.3496 20.0174H71.6528V21.2578H70.7618C70.4878 21.2578 70.2853 21.3029 70.1566 21.3954C70.0351 21.4784 69.9732 21.6088 69.9732 21.782C69.9732 21.9266 70.0256 22.0476 70.1328 22.1472C70.2472 22.2373 70.3996 22.2848 70.5902 22.2848C70.7665 22.2848 70.9262 22.2397 71.0715 22.1472C71.224 22.0476 71.3335 21.8958 71.4026 21.6918L71.7338 22.4555C71.6337 22.918 71.4241 23.2643 71.1048 23.492C70.7856 23.7197 70.3544 23.8335 69.8136 23.8335L69.8088 23.8311ZM71.5813 23.7173V22.6121L71.3979 22.3156V20.2214C71.3979 19.9178 71.3026 19.6854 71.112 19.5264C70.9285 19.3675 70.6284 19.2869 70.209 19.2869C69.9279 19.2869 69.642 19.332 69.3514 19.4245C69.0607 19.5075 68.8129 19.6261 68.6081 19.7779L67.7837 18.0821C68.1506 17.8544 68.589 17.6789 69.0988 17.5579C69.6087 17.437 70.109 17.3753 70.5974 17.3753C71.6718 17.3753 72.5033 17.6148 73.0894 18.0915C73.685 18.5706 73.9804 19.3296 73.9804 20.3684V23.7149H71.5789L71.5813 23.7173ZM61.9635 19.7091V17.8307H66.6854V19.7091H61.9635ZM65.5562 23.8311C64.6937 23.8311 64.0243 23.6272 63.543 23.2169C63.0618 22.7994 62.8235 22.1614 62.8235 21.3052V16.0922H65.4085V21.2839C65.4085 21.4736 65.4585 21.6207 65.5562 21.7274C65.6634 21.8341 65.792 21.8863 65.9445 21.8863C66.1661 21.8863 66.3591 21.8294 66.5282 21.7156L67.1452 23.5038C66.9475 23.6177 66.7069 23.7007 66.4258 23.7552C66.1518 23.8074 65.8611 23.8359 65.5562 23.8359V23.8311ZM60.098 16.9887C59.6263 16.9887 59.2475 16.863 58.9664 16.614C58.6853 16.3649 58.5423 16.0519 58.5423 15.6795C58.5423 15.3071 58.6829 14.9964 58.9664 14.745C59.2499 14.4936 59.6263 14.3703 60.098 14.3703C60.5698 14.3703 60.9486 14.4889 61.2297 14.7237C61.5108 14.9585 61.6538 15.2621 61.6538 15.6344C61.6538 16.0281 61.5132 16.3554 61.2297 16.614C60.9486 16.8654 60.5698 16.9887 60.098 16.9887ZM58.8068 23.7173V17.4891H61.3917V23.7173H58.8068ZM54.0372 21.3717C54.2421 21.3717 54.4255 21.329 54.5851 21.246C54.7447 21.1629 54.871 21.0444 54.9615 20.8926C55.0521 20.7408 55.0997 20.5653 55.0997 20.3684C55.0997 20.1716 55.0545 19.9889 54.9615 19.8443C54.871 19.6925 54.7447 19.5786 54.5851 19.5027C54.4255 19.4197 54.2421 19.377 54.0372 19.377C53.8323 19.377 53.656 19.4197 53.4892 19.5027C53.3296 19.5786 53.1986 19.6925 53.1009 19.8443C53.0103 19.9889 52.9627 20.1621 52.9627 20.3684C52.9627 20.5748 53.008 20.7408 53.1009 20.8926C53.2009 21.0444 53.3296 21.1629 53.4892 21.246C53.656 21.329 53.8394 21.3717 54.0372 21.3717ZM53.351 23.3758C52.8245 23.3758 52.3337 23.2548 51.8763 23.0105C51.4189 22.7591 51.0496 22.4105 50.7661 21.9622C50.485 21.514 50.342 20.9827 50.342 20.3684C50.342 19.7541 50.4826 19.2229 50.7661 18.7746C51.0472 18.3264 51.4189 17.9824 51.8763 17.7382C52.3337 17.4962 52.8245 17.3729 53.351 17.3729C53.8775 17.3729 54.335 17.4796 54.678 17.6907C55.0283 17.9042 55.2879 18.2339 55.4547 18.6821C55.6215 19.1233 55.7072 19.683 55.7072 20.366C55.7072 21.0491 55.6239 21.6136 55.4547 22.0618C55.2879 22.503 55.0283 22.8326 54.678 23.0532C54.335 23.2667 53.8918 23.371 53.351 23.371V23.3758ZM53.8561 26.0392C53.2391 26.0392 52.6601 25.9752 52.1169 25.8447C51.5737 25.7143 51.1115 25.5222 50.7208 25.2637L51.5904 23.511C51.8334 23.7007 52.1431 23.8477 52.5172 23.9545C52.8984 24.0683 53.2557 24.1252 53.5917 24.1252C54.1253 24.1252 54.5065 24.0114 54.7352 23.7837C54.9639 23.5631 55.0783 23.2453 55.0783 22.8279V22.3037L55.1926 20.3684L55.2046 18.4331V17.4891H57.6632V22.4745C57.6632 23.6817 57.3273 24.5759 56.6578 25.1617C55.9884 25.7475 55.0521 26.0392 53.8561 26.0392ZM48.2383 16.9887C47.7666 16.9887 47.3878 16.863 47.1067 16.614C46.8256 16.3626 46.6826 16.0519 46.6826 15.6795C46.6826 15.3071 46.8232 14.9964 47.1067 14.745C47.3878 14.4936 47.7666 14.3703 48.2383 14.3703C48.7101 14.3703 49.0889 14.4889 49.37 14.7237C49.6511 14.9585 49.7941 15.2621 49.7941 15.6344C49.7941 16.0281 49.6535 16.3554 49.37 16.614C49.0889 16.8654 48.7101 16.9887 48.2383 16.9887ZM46.9471 23.7173V17.4891H49.532V23.7173H46.9471ZM87.6079 7.37843C87.8128 7.37843 87.9962 7.33574 88.1558 7.25273C88.3155 7.16972 88.4417 7.05113 88.5322 6.89934C88.6228 6.74755 88.6704 6.57204 88.6704 6.37519C88.6704 6.17833 88.6252 5.99571 88.5322 5.85103C88.4417 5.69924 88.3155 5.5854 88.1558 5.5095C87.9962 5.42649 87.8128 5.3838 87.6079 5.3838C87.403 5.3838 87.2267 5.42649 87.0599 5.5095C86.9003 5.5854 86.7693 5.69924 86.6716 5.85103C86.581 5.99571 86.5334 6.16885 86.5334 6.37519C86.5334 6.58153 86.5787 6.74755 86.6716 6.89934C86.7716 7.05113 86.9003 7.16972 87.0599 7.25273C87.2267 7.33574 87.4101 7.37843 87.6079 7.37843ZM86.9217 9.38255C86.3952 9.38255 85.9044 9.26159 85.447 9.0173C84.9896 8.76589 84.6203 8.41725 84.3368 7.96899C84.0533 7.52073 83.9127 6.98947 83.9127 6.37519C83.9127 5.76091 84.0533 5.22964 84.3368 4.78138C84.6203 4.33313 84.9896 3.98922 85.447 3.74494C85.9044 3.50302 86.3952 3.37969 86.9217 3.37969C87.4482 3.37969 87.9057 3.48642 88.2487 3.6975C88.599 3.91096 88.8586 4.24063 89.0254 4.68889C89.1922 5.13003 89.2779 5.68976 89.2779 6.37282C89.2779 7.05588 89.1946 7.62035 89.0254 8.0686C88.8586 8.50975 88.599 8.83942 88.2487 9.05999C87.9057 9.27345 87.4625 9.3778 86.9217 9.3778V9.38255ZM87.4244 12.046C86.8074 12.046 86.2285 11.982 85.6853 11.8515C85.1421 11.7211 84.6799 11.529 84.2892 11.2704L85.1587 9.51773C85.4018 9.70747 85.7115 9.85452 86.0855 9.96125C86.4667 10.0751 86.8241 10.132 87.16 10.132C87.6936 10.132 88.0748 10.0182 88.3035 9.79048C88.5322 9.56991 88.6466 9.2521 88.6466 8.83467V8.31052L88.761 6.37519L88.7729 4.43985V3.4959H91.2315V8.48129C91.2315 9.6885 90.8956 10.5826 90.2262 11.1685C89.5567 11.7543 88.6204 12.046 87.4244 12.046ZM80.4511 3.38206C80.9323 3.38206 81.3659 3.48167 81.7543 3.67853C82.1426 3.86827 82.4475 4.1671 82.6691 4.57741C82.8978 4.98772 83.0122 5.51899 83.0122 6.17122V9.72407H80.4272V6.6171C80.4272 6.23051 80.3582 5.95776 80.2224 5.79648C80.0842 5.63046 79.8984 5.54508 79.6625 5.54508C79.4862 5.54508 79.3242 5.58777 79.1717 5.67078C79.0264 5.74668 78.9096 5.87475 78.8167 6.05738C78.7333 6.24 78.6905 6.48666 78.6905 6.79736V9.72407H76.1055V3.4959H78.5642V5.31739L78.0734 4.79324C78.3164 4.32364 78.6452 3.97025 79.0574 3.73545C79.4767 3.50065 79.9412 3.38206 80.4535 3.38206H80.4511ZM73.6659 2.99547C73.1942 2.99547 72.8154 2.86977 72.5343 2.62073C72.2532 2.36933 72.1102 2.05863 72.1102 1.68627C72.1102 1.31391 72.2508 1.00321 72.5343 0.751809C72.8154 0.500405 73.1942 0.377075 73.6659 0.377075C74.1377 0.377075 74.5165 0.495662 74.7976 0.730463C75.0787 0.965265 75.2217 1.26885 75.2217 1.64121C75.2217 2.03492 75.0811 2.36222 74.7976 2.62073C74.5165 2.87214 74.1377 2.99547 73.6659 2.99547ZM72.3747 9.72407V3.4959H74.9596V9.72407H72.3747ZM64.3292 9.72407L67.2787 5.87712L67.2096 7.35709L64.3959 3.49828H67.312L68.6962 5.55931L67.6217 5.63995L69.1417 3.50065H71.8529L69.0274 7.23376V5.81072L71.9101 9.72645H68.9487L67.5193 7.53022L68.6057 7.67727L67.131 9.72645H64.3292V9.72407ZM61.1535 9.83792C60.3911 9.83792 59.724 9.69799 59.1522 9.41575C58.5876 9.13589 58.1492 8.75166 57.8371 8.26546C57.525 7.77214 57.3678 7.21715 57.3678 6.60287C57.3678 5.9886 57.5203 5.41464 57.8252 4.92843C58.1373 4.44223 58.5614 4.06275 59.095 3.79C59.6359 3.51725 60.2434 3.37969 60.9128 3.37969C61.5299 3.37969 62.0993 3.50065 62.6163 3.74494C63.1428 3.98685 63.5621 4.34736 63.8742 4.82645C64.1934 5.30554 64.3554 5.8961 64.3554 6.60287C64.3554 6.693 64.3507 6.79736 64.3435 6.9112C64.3364 7.01793 64.3292 7.11517 64.3197 7.20767H59.5048V5.96725H62.9474L61.9754 6.29692C61.9754 6.055 61.9301 5.84866 61.8372 5.68264C61.7538 5.50713 61.6347 5.37432 61.4822 5.28419C61.3298 5.18458 61.1463 5.13714 60.9343 5.13714C60.7222 5.13714 60.534 5.18695 60.3744 5.28419C60.2219 5.37432 60.1028 5.50713 60.0194 5.68264C59.936 5.84866 59.8932 6.055 59.8932 6.29692V6.68351C59.8932 6.94915 59.9456 7.17683 60.0528 7.36657C60.16 7.55631 60.3125 7.70099 60.5102 7.79823C60.7079 7.88835 60.9486 7.93579 61.2297 7.93579C61.5108 7.93579 61.7562 7.89784 61.9397 7.82194C62.1302 7.74605 62.328 7.63221 62.5353 7.48042L63.8837 8.83467C63.5788 9.16197 63.2023 9.41101 62.7521 9.58651C62.3089 9.75253 61.7753 9.83792 61.1511 9.83792H61.1535ZM54.0967 9.72407V8.88211L54.0848 6.60525L53.9705 4.32838V1.27596H56.5554V9.72407H54.0967ZM53.0008 7.8338C53.1914 7.8338 53.3629 7.78874 53.5154 7.69624C53.6679 7.60612 53.7894 7.46856 53.8823 7.28593C53.9728 7.09619 54.0205 6.86851 54.0205 6.60287C54.0205 6.33724 53.9752 6.10481 53.8823 5.93167C53.7918 5.74905 53.6679 5.61386 53.5154 5.52136C53.3629 5.43124 53.1914 5.3838 53.0008 5.3838C52.8102 5.3838 52.6387 5.42887 52.4862 5.52136C52.3337 5.61149 52.2122 5.74905 52.1193 5.93167C52.0288 6.10718 51.9811 6.33012 51.9811 6.60287C51.9811 6.87562 52.0264 7.09619 52.1193 7.28593C52.2098 7.46856 52.3337 7.60375 52.4862 7.69624C52.6387 7.78637 52.8102 7.8338 53.0008 7.8338ZM52.3814 9.83792C51.8406 9.83792 51.3379 9.70984 50.8709 9.45132C50.4135 9.18569 50.0466 8.81333 49.7726 8.33661C49.4987 7.85041 49.3605 7.27407 49.3605 6.60525C49.3605 5.93642 49.4987 5.36483 49.7726 4.88574C50.0466 4.39953 50.4135 4.02717 50.8709 3.77102C51.3355 3.51251 51.8382 3.38443 52.3814 3.38443C52.9246 3.38443 53.3796 3.50302 53.7298 3.73782C54.08 3.96551 54.3397 4.3189 54.5065 4.79561C54.6733 5.26522 54.759 5.87001 54.759 6.60525C54.759 7.34048 54.678 7.95951 54.5184 8.4386C54.3659 8.91769 54.1134 9.2687 53.7632 9.49639C53.4201 9.72407 52.9579 9.83792 52.379 9.83792H52.3814ZM45.8416 3.38206C46.3229 3.38206 46.7565 3.48167 47.1448 3.67853C47.5332 3.86827 47.8381 4.1671 48.0597 4.57741C48.2884 4.98772 48.4027 5.51899 48.4027 6.17122V9.72407H45.8178V6.6171C45.8178 6.23051 45.7487 5.95776 45.6129 5.79648C45.4747 5.63046 45.2889 5.54508 45.0531 5.54508C44.8768 5.54508 44.7147 5.58777 44.5623 5.67078C44.4169 5.74668 44.3002 5.87475 44.2073 6.05738C44.1239 6.24 44.081 6.48666 44.081 6.79736V9.72407H41.4961V3.4959H43.9548V5.31739L43.464 4.79324C43.707 4.32364 44.0358 3.97025 44.4479 3.73545C44.8672 3.50065 45.3318 3.38206 45.844 3.38206H45.8416Z" fill="white"/>
<path d="M75.1002 23.7173V15.2692H77.6851V23.7173H75.1002ZM69.8088 23.8311C69.299 23.8311 68.8701 23.7434 68.5271 23.5703C68.184 23.3971 67.9243 23.1647 67.7504 22.8753C67.5741 22.5789 67.4883 22.2539 67.4883 21.8958C67.4883 21.4926 67.5908 21.1511 67.798 20.8712C68.0029 20.5914 68.3174 20.3779 68.7367 20.2332C69.1632 20.0885 69.7016 20.0174 70.3496 20.0174H71.6528V21.2578H70.7618C70.4878 21.2578 70.2853 21.3029 70.1566 21.3954C70.0351 21.4784 69.9732 21.6088 69.9732 21.782C69.9732 21.9266 70.0256 22.0476 70.1328 22.1472C70.2472 22.2373 70.3996 22.2848 70.5902 22.2848C70.7665 22.2848 70.9262 22.2397 71.0715 22.1472C71.224 22.0476 71.3335 21.8958 71.4026 21.6918L71.7338 22.4555C71.6337 22.918 71.4241 23.2643 71.1048 23.492C70.7856 23.7197 70.3544 23.8335 69.8136 23.8335L69.8088 23.8311ZM71.5813 23.7173V22.6121L71.3979 22.3156V20.2214C71.3979 19.9178 71.3026 19.6854 71.112 19.5264C70.9285 19.3675 70.6284 19.2869 70.209 19.2869C69.9279 19.2869 69.642 19.332 69.3514 19.4245C69.0607 19.5075 68.8129 19.6261 68.6081 19.7779L67.7837 18.0821C68.1506 17.8544 68.589 17.6789 69.0988 17.5579C69.6087 17.437 70.109 17.3753 70.5974 17.3753C71.6718 17.3753 72.5033 17.6148 73.0894 18.0915C73.685 18.5706 73.9804 19.3296 73.9804 20.3684V23.7149H71.5789L71.5813 23.7173ZM61.9635 19.7091V17.8307H66.6854V19.7091H61.9635ZM65.5562 23.8311C64.6937 23.8311 64.0243 23.6272 63.543 23.2169C63.0618 22.7994 62.8235 22.1614 62.8235 21.3052V16.0922H65.4085V21.2839C65.4085 21.4736 65.4585 21.6207 65.5562 21.7274C65.6634 21.8341 65.792 21.8863 65.9445 21.8863C66.1661 21.8863 66.3591 21.8294 66.5282 21.7156L67.1452 23.5038C66.9475 23.6177 66.7069 23.7007 66.4258 23.7552C66.1518 23.8074 65.8611 23.8359 65.5562 23.8359V23.8311ZM60.098 16.9887C59.6263 16.9887 59.2475 16.863 58.9664 16.614C58.6853 16.3649 58.5423 16.0519 58.5423 15.6795C58.5423 15.3071 58.6829 14.9964 58.9664 14.745C59.2499 14.4936 59.6263 14.3703 60.098 14.3703C60.5698 14.3703 60.9486 14.4889 61.2297 14.7237C61.5108 14.9585 61.6538 15.2621 61.6538 15.6344C61.6538 16.0281 61.5132 16.3554 61.2297 16.614C60.9486 16.8654 60.5698 16.9887 60.098 16.9887ZM58.8068 23.7173V17.4891H61.3917V23.7173H58.8068ZM54.0372 21.3717C54.2421 21.3717 54.4255 21.329 54.5851 21.246C54.7447 21.1629 54.871 21.0444 54.9615 20.8926C55.0521 20.7408 55.0997 20.5653 55.0997 20.3684C55.0997 20.1716 55.0545 19.9889 54.9615 19.8443C54.871 19.6925 54.7447 19.5786 54.5851 19.5027C54.4255 19.4197 54.2421 19.377 54.0372 19.377C53.8323 19.377 53.656 19.4197 53.4892 19.5027C53.3296 19.5786 53.1986 19.6925 53.1009 19.8443C53.0103 19.9889 52.9627 20.1621 52.9627 20.3684C52.9627 20.5748 53.008 20.7408 53.1009 20.8926C53.2009 21.0444 53.3296 21.1629 53.4892 21.246C53.656 21.329 53.8394 21.3717 54.0372 21.3717ZM53.351 23.3758C52.8245 23.3758 52.3337 23.2548 51.8763 23.0105C51.4189 22.7591 51.0496 22.4105 50.7661 21.9622C50.485 21.514 50.342 20.9827 50.342 20.3684C50.342 19.7541 50.4826 19.2229 50.7661 18.7746C51.0472 18.3264 51.4189 17.9824 51.8763 17.7382C52.3337 17.4962 52.8245 17.3729 53.351 17.3729C53.8775 17.3729 54.335 17.4796 54.678 17.6907C55.0283 17.9042 55.2879 18.2339 55.4547 18.6821C55.6215 19.1233 55.7072 19.683 55.7072 20.366C55.7072 21.0491 55.6239 21.6136 55.4547 22.0618C55.2879 22.503 55.0283 22.8326 54.678 23.0532C54.335 23.2667 53.8918 23.371 53.351 23.371V23.3758ZM53.8561 26.0392C53.2391 26.0392 52.6601 25.9752 52.1169 25.8447C51.5737 25.7143 51.1115 25.5222 50.7208 25.2637L51.5904 23.511C51.8334 23.7007 52.1431 23.8477 52.5172 23.9545C52.8984 24.0683 53.2557 24.1252 53.5917 24.1252C54.1253 24.1252 54.5065 24.0114 54.7352 23.7837C54.9639 23.5631 55.0783 23.2453 55.0783 22.8279V22.3037L55.1926 20.3684L55.2046 18.4331V17.4891H57.6632V22.4745C57.6632 23.6817 57.3273 24.5759 56.6578 25.1617C55.9884 25.7475 55.0521 26.0392 53.8561 26.0392ZM48.2383 16.9887C47.7666 16.9887 47.3878 16.863 47.1067 16.614C46.8256 16.3626 46.6826 16.0519 46.6826 15.6795C46.6826 15.3071 46.8232 14.9964 47.1067 14.745C47.3878 14.4936 47.7666 14.3703 48.2383 14.3703C48.7101 14.3703 49.0889 14.4889 49.37 14.7237C49.6511 14.9585 49.7941 15.2621 49.7941 15.6344C49.7941 16.0281 49.6535 16.3554 49.37 16.614C49.0889 16.8654 48.7101 16.9887 48.2383 16.9887ZM46.9471 23.7173V17.4891H49.532V23.7173H46.9471ZM87.6079 7.37843C87.8128 7.37843 87.9962 7.33574 88.1558 7.25273C88.3155 7.16972 88.4417 7.05113 88.5322 6.89934C88.6228 6.74755 88.6704 6.57204 88.6704 6.37519C88.6704 6.17833 88.6252 5.99571 88.5322 5.85103C88.4417 5.69924 88.3155 5.5854 88.1558 5.5095C87.9962 5.42649 87.8128 5.3838 87.6079 5.3838C87.403 5.3838 87.2267 5.42649 87.0599 5.5095C86.9003 5.5854 86.7693 5.69924 86.6716 5.85103C86.581 5.99571 86.5334 6.16885 86.5334 6.37519C86.5334 6.58153 86.5787 6.74755 86.6716 6.89934C86.7716 7.05113 86.9003 7.16972 87.0599 7.25273C87.2267 7.33574 87.4101 7.37843 87.6079 7.37843ZM86.9217 9.38255C86.3952 9.38255 85.9044 9.26159 85.447 9.0173C84.9896 8.76589 84.6203 8.41725 84.3368 7.96899C84.0533 7.52073 83.9127 6.98947 83.9127 6.37519C83.9127 5.76091 84.0533 5.22964 84.3368 4.78138C84.6203 4.33313 84.9896 3.98922 85.447 3.74494C85.9044 3.50302 86.3952 3.37969 86.9217 3.37969C87.4482 3.37969 87.9057 3.48642 88.2487 3.6975C88.599 3.91096 88.8586 4.24063 89.0254 4.68889C89.1922 5.13003 89.2779 5.68976 89.2779 6.37282C89.2779 7.05588 89.1946 7.62035 89.0254 8.0686C88.8586 8.50975 88.599 8.83942 88.2487 9.05999C87.9057 9.27345 87.4625 9.3778 86.9217 9.3778V9.38255ZM87.4244 12.046C86.8074 12.046 86.2285 11.982 85.6853 11.8515C85.1421 11.7211 84.6799 11.529 84.2892 11.2704L85.1587 9.51773C85.4018 9.70747 85.7115 9.85452 86.0855 9.96125C86.4667 10.0751 86.8241 10.132 87.16 10.132C87.6936 10.132 88.0748 10.0182 88.3035 9.79048C88.5322 9.56991 88.6466 9.2521 88.6466 8.83467V8.31052L88.761 6.37519L88.7729 4.43985V3.4959H91.2315V8.48129C91.2315 9.6885 90.8956 10.5826 90.2262 11.1685C89.5567 11.7543 88.6204 12.046 87.4244 12.046ZM80.4511 3.38206C80.9323 3.38206 81.3659 3.48167 81.7543 3.67853C82.1426 3.86827 82.4475 4.1671 82.6691 4.57741C82.8978 4.98772 83.0122 5.51899 83.0122 6.17122V9.72407H80.4272V6.6171C80.4272 6.23051 80.3582 5.95776 80.2224 5.79648C80.0842 5.63046 79.8984 5.54508 79.6625 5.54508C79.4862 5.54508 79.3242 5.58777 79.1717 5.67078C79.0264 5.74668 78.9096 5.87475 78.8167 6.05738C78.7333 6.24 78.6905 6.48666 78.6905 6.79736V9.72407H76.1055V3.4959H78.5642V5.31739L78.0734 4.79324C78.3164 4.32364 78.6452 3.97025 79.0574 3.73545C79.4767 3.50065 79.9412 3.38206 80.4535 3.38206H80.4511ZM73.6659 2.99547C73.1942 2.99547 72.8154 2.86977 72.5343 2.62073C72.2532 2.36933 72.1102 2.05863 72.1102 1.68627C72.1102 1.31391 72.2508 1.00321 72.5343 0.751809C72.8154 0.500405 73.1942 0.377075 73.6659 0.377075C74.1377 0.377075 74.5165 0.495662 74.7976 0.730463C75.0787 0.965265 75.2217 1.26885 75.2217 1.64121C75.2217 2.03492 75.0811 2.36222 74.7976 2.62073C74.5165 2.87214 74.1377 2.99547 73.6659 2.99547ZM72.3747 9.72407V3.4959H74.9596V9.72407H72.3747ZM64.3292 9.72407L67.2787 5.87712L67.2096 7.35709L64.3959 3.49828H67.312L68.6962 5.55931L67.6217 5.63995L69.1417 3.50065H71.8529L69.0274 7.23376V5.81072L71.9101 9.72645H68.9487L67.5193 7.53022L68.6057 7.67727L67.131 9.72645H64.3292V9.72407ZM61.1535 9.83792C60.3911 9.83792 59.724 9.69799 59.1522 9.41575C58.5876 9.13589 58.1492 8.75166 57.8371 8.26546C57.525 7.77214 57.3678 7.21715 57.3678 6.60287C57.3678 5.9886 57.5203 5.41464 57.8252 4.92843C58.1373 4.44223 58.5614 4.06275 59.095 3.79C59.6359 3.51725 60.2434 3.37969 60.9128 3.37969C61.5299 3.37969 62.0993 3.50065 62.6163 3.74494C63.1428 3.98685 63.5621 4.34736 63.8742 4.82645C64.1934 5.30554 64.3554 5.8961 64.3554 6.60287C64.3554 6.693 64.3507 6.79736 64.3435 6.9112C64.3364 7.01793 64.3292 7.11517 64.3197 7.20767H59.5048V5.96725H62.9474L61.9754 6.29692C61.9754 6.055 61.9301 5.84866 61.8372 5.68264C61.7538 5.50713 61.6347 5.37432 61.4822 5.28419C61.3298 5.18458 61.1463 5.13714 60.9343 5.13714C60.7222 5.13714 60.534 5.18695 60.3744 5.28419C60.2219 5.37432 60.1028 5.50713 60.0194 5.68264C59.936 5.84866 59.8932 6.055 59.8932 6.29692V6.68351C59.8932 6.94915 59.9456 7.17683 60.0528 7.36657C60.16 7.55631 60.3125 7.70099 60.5102 7.79823C60.7079 7.88835 60.9486 7.93579 61.2297 7.93579C61.5108 7.93579 61.7562 7.89784 61.9397 7.82194C62.1302 7.74605 62.328 7.63221 62.5353 7.48042L63.8837 8.83467C63.5788 9.16197 63.2023 9.41101 62.7521 9.58651C62.3089 9.75253 61.7753 9.83792 61.1511 9.83792H61.1535ZM54.0967 9.72407V8.88211L54.0848 6.60525L53.9705 4.32838V1.27596H56.5554V9.72407H54.0967ZM53.0008 7.8338C53.1914 7.8338 53.3629 7.78874 53.5154 7.69624C53.6679 7.60612 53.7894 7.46856 53.8823 7.28593C53.9728 7.09619 54.0205 6.86851 54.0205 6.60287C54.0205 6.33724 53.9752 6.10481 53.8823 5.93167C53.7918 5.74905 53.6679 5.61386 53.5154 5.52136C53.3629 5.43124 53.1914 5.3838 53.0008 5.3838C52.8102 5.3838 52.6387 5.42887 52.4862 5.52136C52.3337 5.61149 52.2122 5.74905 52.1193 5.93167C52.0288 6.10718 51.9811 6.33012 51.9811 6.60287C51.9811 6.87562 52.0264 7.09619 52.1193 7.28593C52.2098 7.46856 52.3337 7.60375 52.4862 7.69624C52.6387 7.78637 52.8102 7.8338 53.0008 7.8338ZM52.3814 9.83792C51.8406 9.83792 51.3379 9.70984 50.8709 9.45132C50.4135 9.18569 50.0466 8.81333 49.7726 8.33661C49.4987 7.85041 49.3605 7.27407 49.3605 6.60525C49.3605 5.93642 49.4987 5.36483 49.7726 4.88574C50.0466 4.39953 50.4135 4.02717 50.8709 3.77102C51.3355 3.51251 51.8382 3.38443 52.3814 3.38443C52.9246 3.38443 53.3796 3.50302 53.7298 3.73782C54.08 3.96551 54.3397 4.3189 54.5065 4.79561C54.6733 5.26522 54.759 5.87001 54.759 6.60525C54.759 7.34048 54.678 7.95951 54.5184 8.4386C54.3659 8.91769 54.1134 9.2687 53.7632 9.49639C53.4201 9.72407 52.9579 9.83792 52.379 9.83792H52.3814ZM45.8416 3.38206C46.3229 3.38206 46.7565 3.48167 47.1448 3.67853C47.5332 3.86827 47.8381 4.1671 48.0597 4.57741C48.2884 4.98772 48.4027 5.51899 48.4027 6.17122V9.72407H45.8178V6.6171C45.8178 6.23051 45.7487 5.95776 45.6129 5.79648C45.4747 5.63046 45.2889 5.54508 45.0531 5.54508C44.8768 5.54508 44.7147 5.58777 44.5623 5.67078C44.4169 5.74668 44.3002 5.87475 44.2073 6.05738C44.1239 6.24 44.081 6.48666 44.081 6.79736V9.72407H41.4961V3.4959H43.9548V5.31739L43.464 4.79324C43.707 4.32364 44.0358 3.97025 44.4479 3.73545C44.8672 3.50065 45.3318 3.38206 45.844 3.38206H45.8416Z" fill="white"/>
<path d="M107.587 31.6057C108.068 31.6057 108.502 31.7053 108.89 31.9022C109.278 32.0919 109.583 32.3907 109.805 32.801C110.034 33.2114 110.148 33.7426 110.148 34.3949V37.9477H107.563V34.8407C107.563 34.4541 107.494 34.1814 107.358 34.0201C107.22 33.8541 107.034 33.7687 106.798 33.7687C106.622 33.7687 106.46 33.8114 106.308 33.8944C106.162 33.9703 106.045 34.0984 105.953 34.281C105.869 34.4636 105.826 34.7103 105.826 35.021V37.9477H103.241V31.7195H105.7V33.541L105.209 33.0169C105.452 32.5473 105.781 32.1939 106.193 31.9591C106.612 31.7243 107.077 31.6057 107.589 31.6057H107.587ZM98.7957 36.0574C98.9863 36.0574 99.1579 36.0124 99.3103 35.9199C99.4628 35.8298 99.5843 35.6922 99.6772 35.5096C99.7678 35.3198 99.8154 35.0921 99.8154 34.8265C99.8154 34.5609 99.7701 34.3284 99.6772 34.1553C99.5867 33.9727 99.4628 33.8375 99.3103 33.745C99.1579 33.6525 98.9863 33.6074 98.7957 33.6074C98.6051 33.6074 98.4336 33.6525 98.2811 33.745C98.1287 33.8375 98.0071 33.9727 97.9142 34.1553C97.8237 34.3308 97.7761 34.5538 97.7761 34.8265C97.7761 35.0993 97.8213 35.3198 97.9142 35.5096C98.0048 35.6922 98.1287 35.8274 98.2811 35.9199C98.4336 36.01 98.6051 36.0574 98.7957 36.0574ZM98.7957 38.0616C98.0858 38.0616 97.4568 37.924 96.9089 37.6512C96.368 37.3714 95.9416 36.9872 95.6271 36.5009C95.315 36.0147 95.1578 35.4574 95.1578 34.8265C95.1578 34.1956 95.315 33.6383 95.6271 33.1521C95.9392 32.6659 96.3657 32.2864 96.9089 32.0136C97.4568 31.7409 98.0858 31.6033 98.7957 31.6033C99.5057 31.6033 100.135 31.7409 100.683 32.0136C101.231 32.2864 101.659 32.6659 101.964 33.1521C102.276 33.6383 102.434 34.1956 102.434 34.8265C102.434 35.4574 102.276 36.0147 101.964 36.5009C101.659 36.9872 101.233 37.369 100.683 37.6512C100.135 37.924 99.5057 38.0616 98.7957 38.0616ZM93.0541 31.2191C92.5824 31.2191 92.2036 31.0934 91.9224 30.8444C91.6413 30.593 91.4984 30.2823 91.4984 29.9099C91.4984 29.5375 91.6389 29.2268 91.9224 28.9754C92.2036 28.724 92.5824 28.6007 93.0541 28.6007C93.5258 28.6007 93.9046 28.7193 94.1857 28.9541C94.4669 29.1889 94.6098 29.4925 94.6098 29.8648C94.6098 30.2585 94.4693 30.5859 94.1857 30.8444C93.9046 31.0958 93.5258 31.2191 93.0541 31.2191ZM91.7628 37.9477V31.7195H94.3477V37.9477H91.7628ZM85.9307 33.9395V32.0611H90.6526V33.9395H85.9307ZM89.521 38.0616C88.6585 38.0616 87.9891 37.8576 87.5078 37.4473C87.0266 37.0298 86.7883 36.3919 86.7883 35.5357V30.3226H89.3733V35.5143C89.3733 35.7041 89.4233 35.8511 89.521 35.9578C89.6282 36.0646 89.7568 36.1167 89.9093 36.1167C90.1309 36.1167 90.3238 36.0598 90.493 35.946L91.11 37.7343C90.9123 37.8481 90.6717 37.9311 90.3905 37.9857C90.1166 38.0378 89.8259 38.0663 89.521 38.0663V38.0616ZM81.2111 38.0616C80.7012 38.0616 80.2724 37.9738 79.9293 37.8007C79.5863 37.6275 79.3266 37.3951 79.1527 37.1057C78.9764 36.8093 78.8906 36.4844 78.8906 36.1262C78.8906 35.723 78.993 35.3815 79.2003 35.1016C79.4076 34.8218 79.7197 34.6083 80.139 34.4636C80.5654 34.319 81.1039 34.2478 81.7519 34.2478H83.0551V35.4882H82.164C81.8901 35.4882 81.6876 35.5333 81.5589 35.6258C81.4374 35.7088 81.3755 35.8392 81.3755 36.0124C81.3755 36.157 81.4279 36.278 81.5351 36.3776C81.6494 36.4677 81.8019 36.5152 81.9925 36.5152C82.1688 36.5152 82.3284 36.4701 82.4738 36.3776C82.6262 36.278 82.7358 36.1262 82.8049 35.9222L83.1361 36.6859C83.036 37.1484 82.8264 37.4947 82.5071 37.7224C82.1879 37.9501 81.7566 38.0639 81.2158 38.0639L81.2111 38.0616ZM82.9836 37.9477V36.8425L82.8001 36.546V34.4518C82.8001 34.1482 82.7049 33.9158 82.5143 33.7569C82.3308 33.598 82.0306 33.5173 81.6113 33.5173C81.3302 33.5173 81.0443 33.5624 80.7536 33.6549C80.463 33.7379 80.2152 33.8565 80.0103 34.0083L79.186 32.3125C79.5529 32.0848 79.9913 31.9093 80.5011 31.7883C81.0109 31.6674 81.5113 31.6057 81.9997 31.6057C83.0741 31.6057 83.9056 31.8452 84.4917 32.322C85.0873 32.801 85.3827 33.56 85.3827 34.5988V37.9453H82.9812L82.9836 37.9477ZM75.5838 31.6057C76.0555 31.6057 76.4796 31.7053 76.8536 31.9022C77.2348 32.0919 77.5326 32.3907 77.7446 32.801C77.9662 33.2114 78.0758 33.7426 78.0758 34.3949V37.9477H75.4909V34.8407C75.4909 34.4541 75.4266 34.1814 75.2955 34.0201C75.1669 33.8541 74.9977 33.7687 74.7928 33.7687C74.6404 33.7687 74.5022 33.8067 74.3807 33.8826C74.2592 33.9585 74.1591 34.0794 74.0829 34.2478C74.0138 34.4067 73.9804 34.6273 73.9804 34.9071V37.9477H71.3955V34.8407C71.3955 34.4541 71.3336 34.1814 71.212 34.0201C71.0905 33.8541 70.919 33.7687 70.6974 33.7687C70.545 33.7687 70.4068 33.8067 70.2853 33.8826C70.1638 33.9585 70.0637 34.0794 69.9875 34.2478C69.9184 34.4067 69.885 34.6273 69.885 34.9071V37.9477H67.3001V31.7195H69.7588V33.5078L69.2561 33.0074C69.4919 32.5378 69.8088 32.1868 70.2043 31.9591C70.5998 31.7243 71.0429 31.6057 71.5313 31.6057C72.0793 31.6057 72.5653 31.7504 72.9846 32.0374C73.411 32.3172 73.6969 32.7655 73.8422 33.3798L73.0537 33.2541C73.2824 32.737 73.6135 32.3362 74.0495 32.0468C74.4926 31.7504 75.0025 31.6033 75.5814 31.6033L75.5838 31.6057ZM62.0898 37.9477V31.7195H64.5484V33.598L64.1482 33.0619C64.3388 32.5757 64.6437 32.2129 65.063 31.9686C65.4823 31.7267 65.985 31.6033 66.5735 31.6033V33.8802C66.4591 33.866 66.3567 33.8541 66.2638 33.847C66.1804 33.8399 66.0922 33.8351 66.0017 33.8351C65.6134 33.8351 65.2917 33.9371 65.0416 34.1435C64.7986 34.3403 64.6747 34.6866 64.6747 35.1799V37.9453H62.0898V37.9477ZM57.6442 36.0574C57.8347 36.0574 58.0063 36.0124 58.1588 35.9199C58.3112 35.8298 58.4327 35.6922 58.5257 35.5096C58.6162 35.3198 58.6638 35.0921 58.6638 34.8265C58.6638 34.5609 58.6186 34.3284 58.5257 34.1553C58.4351 33.9727 58.3112 33.8375 58.1588 33.745C58.0063 33.6549 57.8347 33.6074 57.6442 33.6074C57.4536 33.6074 57.282 33.6525 57.1296 33.745C56.9771 33.8375 56.8556 33.9727 56.7627 34.1553C56.6721 34.3308 56.6245 34.5538 56.6245 34.8265C56.6245 35.0993 56.6697 35.3198 56.7627 35.5096C56.8532 35.6922 56.9771 35.8274 57.1296 35.9199C57.282 36.01 57.4536 36.0574 57.6442 36.0574ZM57.6442 38.0616C56.9342 38.0616 56.3052 37.924 55.7573 37.6512C55.2165 37.3714 54.79 36.9872 54.4755 36.5009C54.1634 36.0147 54.0062 35.4574 54.0062 34.8265C54.0062 34.1956 54.1634 33.6383 54.4755 33.1521C54.7876 32.6659 55.2141 32.2864 55.7573 32.0136C56.3052 31.7409 56.9342 31.6033 57.6442 31.6033C58.3541 31.6033 58.9831 31.7409 59.531 32.0136C60.079 32.2864 60.5078 32.6659 60.8128 33.1521C61.1249 33.6383 61.2821 34.1956 61.2821 34.8265C61.2821 35.4574 61.1249 36.0147 60.8128 36.5009C60.5078 36.9872 60.0814 37.369 59.531 37.6512C58.9831 37.924 58.3541 38.0616 57.6442 38.0616ZM48.9531 33.9395V32.0611H53.675V33.9395H48.9531ZM49.8108 37.9477V32.0279C49.8108 31.2238 50.0514 30.5811 50.5302 30.1044C51.0186 29.6253 51.7072 29.3881 52.6006 29.3881C52.8745 29.3881 53.1485 29.4142 53.4249 29.4688C53.706 29.5138 53.9443 29.5897 54.1348 29.6964L53.5178 31.4847C53.4344 31.4468 53.3415 31.4136 53.2438 31.3828C53.1438 31.3519 53.0413 31.3377 52.9341 31.3377C52.7507 31.3377 52.603 31.3946 52.4886 31.5085C52.3742 31.6223 52.3171 31.8049 52.3171 32.054V32.3504L52.3981 33.4082V37.9501H49.8131L49.8108 37.9477ZM45.8416 31.6057C46.3229 31.6057 46.7565 31.7053 47.1448 31.9022C47.5332 32.0919 47.8381 32.3907 48.0597 32.801C48.2884 33.2114 48.4027 33.7426 48.4027 34.3949V37.9477H45.8178V34.8407C45.8178 34.4541 45.7487 34.1814 45.6129 34.0201C45.4747 33.8541 45.2889 33.7687 45.0531 33.7687C44.8768 33.7687 44.7147 33.8114 44.5623 33.8944C44.4169 33.9703 44.3002 34.0984 44.2073 34.281C44.1239 34.4636 44.081 34.7103 44.081 35.021V37.9477H41.4961V31.7195H43.9548V33.541L43.464 33.0169C43.707 32.5473 44.0358 32.1939 44.4479 31.9591C44.8672 31.7243 45.3318 31.6057 45.844 31.6057H45.8416Z" fill="white"/>
<path d="M89.685 48.0015L88.3579 45.0179H88.9059L90.0352 47.5936L89.685 48.0039V48.0015ZM88.994 49C88.8559 49 88.7201 48.9763 88.589 48.9289C88.458 48.8862 88.3437 48.8198 88.2484 48.732L88.4723 48.3383C88.5462 48.4071 88.6248 48.4593 88.7129 48.4972C88.8011 48.5328 88.894 48.5518 88.9917 48.5518C89.1203 48.5518 89.2251 48.5186 89.3085 48.4545C89.3919 48.3905 89.4705 48.2719 89.5444 48.1059L89.7254 47.7074L89.7802 47.641L90.919 45.0179H91.4336L90.0256 48.1984C89.9423 48.4024 89.847 48.5613 89.7397 48.6775C89.6373 48.7937 89.5253 48.8767 89.3991 48.9241C89.2752 48.9739 89.137 49 88.9869 49H88.994ZM86.6879 44.9918C86.9261 44.9918 87.1334 45.0369 87.312 45.127C87.4955 45.2171 87.6361 45.3571 87.7385 45.542C87.841 45.727 87.891 45.9618 87.891 46.2465V47.909H87.3645V46.3057C87.3645 46.0259 87.2954 45.8148 87.1572 45.6725C87.0214 45.5302 86.8308 45.459 86.583 45.459C86.3972 45.459 86.2352 45.4946 86.0946 45.5681C85.9565 45.6417 85.8469 45.7484 85.7706 45.8907C85.6968 46.033 85.661 46.2085 85.661 46.4196V47.909H85.1345V45.0179H85.6396V45.7982L85.5562 45.5918C85.6515 45.4021 85.7968 45.2551 85.9946 45.1507C86.1923 45.0464 86.421 44.9918 86.6855 44.9918H86.6879ZM82.6568 47.9422C82.4424 47.9422 82.2518 47.9067 82.0874 47.8331C81.9278 47.7596 81.8015 47.66 81.7157 47.5343C81.6276 47.4039 81.5847 47.2568 81.5847 47.0932C81.5847 46.9295 81.6204 46.7943 81.6943 46.6686C81.7705 46.5405 81.8944 46.4386 82.0612 46.3627C82.2327 46.2868 82.4638 46.2488 82.7521 46.2488H83.6717V46.6259H82.7735C82.5115 46.6259 82.3328 46.6686 82.2423 46.7564C82.1517 46.8441 82.1041 46.9485 82.1041 47.0718C82.1041 47.2141 82.1613 47.328 82.2732 47.4157C82.3876 47.4987 82.5424 47.5414 82.745 47.5414C82.9475 47.5414 83.1142 47.4987 83.2596 47.411C83.4097 47.3232 83.5169 47.1975 83.5836 47.0291L83.6884 47.3896C83.6193 47.5604 83.4978 47.6979 83.3215 47.7976C83.1452 47.8948 82.926 47.9446 82.6592 47.9446L82.6568 47.9422ZM83.6098 47.909V47.2971L83.5836 47.1833V46.1421C83.5836 45.9192 83.5169 45.7484 83.3858 45.6298C83.2572 45.5065 83.0642 45.4448 82.8045 45.4448C82.633 45.4448 82.4638 45.4733 82.2994 45.5326C82.1351 45.5871 81.9969 45.6606 81.8825 45.7555L81.6633 45.3618C81.8134 45.2408 81.9921 45.1507 82.1994 45.089C82.4114 45.0226 82.633 44.9918 82.8617 44.9918C83.2596 44.9918 83.5669 45.089 83.7813 45.2812C83.9957 45.4733 84.1053 45.7674 84.1053 46.1658V47.9114H83.6074L83.6098 47.909ZM79.5406 47.4845C79.7264 47.4845 79.8932 47.4418 80.0385 47.3588C80.1886 47.2758 80.3054 47.1572 80.3887 47.0054C80.4769 46.8489 80.5198 46.6686 80.5198 46.4646C80.5198 46.2607 80.4769 46.0781 80.3887 45.931C80.3054 45.7792 80.1886 45.6606 80.0385 45.5776C79.8932 45.4946 79.7264 45.4519 79.5406 45.4519C79.3548 45.4519 79.1928 45.4946 79.0427 45.5776C78.8973 45.6606 78.7806 45.7792 78.6925 45.931C78.6091 46.0804 78.5662 46.2583 78.5662 46.4646C78.5662 46.671 78.6091 46.8489 78.6925 47.0054C78.7806 47.1572 78.8973 47.2758 79.0427 47.3588C79.1928 47.4418 79.3595 47.4845 79.5406 47.4845ZM78.0444 48.9668V45.0179H78.5495V45.7982L78.5162 46.4694L78.5709 47.1406V48.9692H78.0444V48.9668ZM79.5835 47.9422C79.3428 47.9422 79.1213 47.8877 78.9212 47.7786C78.7234 47.6647 78.5662 47.5011 78.4447 47.2829C78.3279 47.0647 78.2684 46.7919 78.2684 46.4646C78.2684 46.1374 78.3256 45.8646 78.4375 45.6464C78.5543 45.4282 78.7115 45.2646 78.9093 45.1555C79.1094 45.0464 79.3357 44.9918 79.5835 44.9918C79.8694 44.9918 80.1195 45.0535 80.3387 45.1768C80.5579 45.3001 80.7318 45.4733 80.8581 45.6938C80.9867 45.912 81.0487 46.1682 81.0487 46.4623C81.0487 46.7564 80.9843 47.0149 80.8581 47.2378C80.7294 47.4608 80.5555 47.6315 80.3387 47.7549C80.1219 47.8782 79.867 47.9399 79.5835 47.9399V47.9422ZM75.8312 44.9918C76.0646 44.9918 76.2719 45.0369 76.4506 45.127C76.6293 45.2171 76.7675 45.3571 76.8675 45.542C76.97 45.727 77.02 45.9618 77.02 46.2465V47.909H76.4935V46.3057C76.4935 46.0259 76.4268 45.8148 76.2957 45.6725C76.1647 45.5302 75.9789 45.459 75.743 45.459C75.5667 45.459 75.4142 45.4946 75.2832 45.5681C75.1522 45.6417 75.0497 45.7484 74.9759 45.8907C74.9068 46.033 74.871 46.2085 74.871 46.4196V47.909H74.3445V46.3057C74.3445 46.0259 74.2778 45.8148 74.1468 45.6725C74.0181 45.5302 73.8347 45.459 73.5941 45.459C73.4225 45.459 73.2701 45.4946 73.139 45.5681C73.008 45.6417 72.9055 45.7484 72.8317 45.8907C72.7578 46.033 72.7221 46.2085 72.7221 46.4196V47.909H72.1956V45.0179H72.7007V45.7863L72.6173 45.5895C72.7078 45.3997 72.8484 45.2527 73.039 45.1483C73.2296 45.044 73.4511 44.9894 73.7013 44.9894C73.98 44.9894 74.2183 45.0582 74.4184 45.1958C74.6185 45.331 74.7519 45.5349 74.8139 45.8124L74.5995 45.7247C74.6876 45.5017 74.8401 45.3238 75.0593 45.191C75.2784 45.0558 75.5334 44.9894 75.8264 44.9894L75.8312 44.9918ZM69.9108 47.4845C70.0967 47.4845 70.2634 47.4418 70.4088 47.3588C70.5589 47.2758 70.6756 47.1572 70.759 47.0054C70.8424 46.8489 70.8853 46.6686 70.8853 46.4646C70.8853 46.2607 70.8424 46.0781 70.759 45.931C70.6756 45.7792 70.5589 45.6606 70.4088 45.5776C70.2634 45.4946 70.0967 45.4519 69.9108 45.4519C69.725 45.4519 69.5582 45.4946 69.4129 45.5776C69.2676 45.6606 69.1509 45.7792 69.0627 45.931C68.9746 46.0804 68.9317 46.2583 68.9317 46.4646C68.9317 46.671 68.9746 46.8489 69.0627 47.0054C69.1509 47.1572 69.2676 47.2758 69.4129 47.3588C69.5582 47.4418 69.725 47.4845 69.9108 47.4845ZM69.9108 47.9422C69.6178 47.9422 69.3581 47.8782 69.1318 47.7525C68.9055 47.6268 68.7268 47.4513 68.5957 47.2283C68.4647 47.003 68.398 46.7493 68.398 46.4646C68.398 46.18 68.4647 45.9239 68.5957 45.701C68.7268 45.478 68.9055 45.3072 69.1318 45.1839C69.3581 45.0558 69.6178 44.9942 69.9108 44.9942C70.2039 44.9942 70.4564 45.0582 70.6828 45.1839C70.9138 45.3072 71.0925 45.4804 71.2188 45.701C71.3498 45.9192 71.4165 46.1729 71.4165 46.4646C71.4165 46.7564 71.3498 47.0054 71.2188 47.2283C71.0901 47.4513 70.9115 47.6244 70.6828 47.7525C70.4564 47.8806 70.1991 47.9422 69.9108 47.9422ZM66.5659 47.9517C66.2729 47.9517 66.0037 47.9043 65.7559 47.8094C65.5105 47.7122 65.2985 47.5746 65.115 47.4015C64.9363 47.2236 64.7958 47.0149 64.6933 46.7801C64.5909 46.5429 64.5409 46.2844 64.5409 45.9998C64.5409 45.7152 64.5909 45.4567 64.6933 45.2195C64.7958 44.9823 64.9387 44.7783 65.1198 44.6028C65.3032 44.425 65.5153 44.2874 65.7607 44.1925C66.0084 44.0953 66.28 44.0455 66.5707 44.0455C66.8613 44.0455 67.1377 44.0953 67.3879 44.1973C67.6404 44.2945 67.8548 44.4416 68.0287 44.6384L67.6714 44.9823C67.526 44.8305 67.3617 44.7167 67.1782 44.6432C66.9948 44.5673 66.7994 44.5293 66.5921 44.5293C66.3849 44.5293 66.1752 44.5649 65.9894 44.6384C65.8059 44.7119 65.6487 44.8139 65.5129 44.9444C65.3771 45.0748 65.2723 45.2313 65.196 45.414C65.1222 45.5918 65.0864 45.7863 65.0864 45.9974C65.0864 46.2085 65.1222 46.4054 65.196 46.5856C65.2723 46.7635 65.3795 46.9177 65.5129 47.0505C65.6487 47.1809 65.8059 47.2829 65.9894 47.3564C66.1752 47.4299 66.3777 47.4655 66.5921 47.4655C66.8065 47.4655 66.9948 47.4299 67.1782 47.3564C67.3617 47.2805 67.526 47.1643 67.6714 47.0078L68.0287 47.3517C67.8524 47.5485 67.6404 47.6979 67.3879 47.7999C67.1401 47.9019 66.8661 47.9517 66.5659 47.9517ZM60.6766 47.3303C60.8696 47.3303 61.0411 47.29 61.1912 47.2094C61.3413 47.1287 61.458 47.0196 61.5414 46.8773C61.6295 46.735 61.6724 46.5714 61.6724 46.3864C61.6724 46.2014 61.6295 46.0377 61.5414 45.8954C61.458 45.7531 61.3413 45.644 61.1912 45.5681C61.0411 45.4875 60.8696 45.4472 60.6766 45.4472C60.4836 45.4472 60.3097 45.4875 60.1572 45.5681C60.0071 45.644 59.888 45.7531 59.8022 45.8954C59.7188 46.0377 59.676 46.2014 59.676 46.3864C59.676 46.5714 59.7188 46.735 59.8022 46.8773C59.8904 47.0196 60.0095 47.1311 60.1572 47.2094C60.3097 47.29 60.4836 47.3303 60.6766 47.3303ZM60.6146 47.7881C60.3335 47.7881 60.081 47.7288 59.8594 47.6126C59.6402 47.4916 59.4639 47.328 59.3329 47.1169C59.2042 46.9058 59.1423 46.6615 59.1423 46.3864C59.1423 46.1113 59.2066 45.8622 59.3329 45.6559C59.4639 45.4448 59.6402 45.2812 59.8594 45.1649C60.0834 45.0487 60.3335 44.9894 60.6146 44.9894C60.8624 44.9894 61.0887 45.0392 61.2936 45.1412C61.4985 45.2385 61.6605 45.3926 61.782 45.599C61.9059 45.8053 61.9678 46.0686 61.9678 46.384C61.9678 46.6995 61.9059 46.9556 61.782 47.1643C61.6605 47.3707 61.4985 47.5272 61.2936 47.6339C61.0887 47.7359 60.8624 47.7857 60.6146 47.7857V47.7881ZM60.6813 49C60.4145 49 60.1548 48.9621 59.9023 48.8862C59.6545 48.8127 59.452 48.7083 59.2948 48.5707L59.5473 48.1676C59.6831 48.2838 59.8475 48.3739 60.0452 48.4403C60.243 48.5091 60.4479 48.5447 60.6647 48.5447C61.0077 48.5447 61.2603 48.464 61.4199 48.3051C61.5795 48.1462 61.6605 47.9019 61.6605 47.5746V46.9627L61.7153 46.3911L61.6891 45.8124V45.0203H62.187V47.5177C62.187 48.0276 62.0584 48.4024 61.8035 48.6419C61.5485 48.8814 61.1745 49.0024 60.6813 49.0024V49ZM57.1768 44.9918C57.415 44.9918 57.6223 45.0369 57.801 45.127C57.9844 45.2171 58.125 45.3571 58.2274 45.542C58.3299 45.727 58.3799 45.9618 58.3799 46.2465V47.909H57.8534V46.3057C57.8534 46.0259 57.7843 45.8148 57.6461 45.6725C57.5103 45.5302 57.3197 45.459 57.0696 45.459C56.8838 45.459 56.7218 45.4946 56.5812 45.5681C56.443 45.6417 56.3358 45.7484 56.2572 45.8907C56.1833 46.033 56.1476 46.2085 56.1476 46.4196V47.909H55.6211V45.0179H56.1261V45.7982L56.0428 45.5918C56.1381 45.4021 56.2834 45.2551 56.4811 45.1507C56.6789 45.0464 56.9076 44.9918 57.172 44.9918H57.1768ZM54.3036 44.4605C54.2012 44.4605 54.1154 44.4273 54.0463 44.3633C53.9796 44.2969 53.9486 44.2186 53.9486 44.1237C53.9486 44.0289 53.982 43.9435 54.0463 43.8771C54.1154 43.8107 54.2012 43.7798 54.3036 43.7798C54.406 43.7798 54.4894 43.8131 54.5561 43.8771C54.6252 43.9388 54.661 44.017 54.661 44.1119C54.661 44.2068 54.6276 44.2945 54.5633 44.3633C54.4966 44.4297 54.4108 44.4605 54.306 44.4605H54.3036ZM54.0415 47.909V45.0179H54.568V47.909H54.0415ZM52.4858 47.909V47.1287L52.5192 46.4575L52.4644 45.7863V43.8605H52.9909V47.909H52.4858ZM51.4947 47.4845C51.6782 47.4845 51.8426 47.4418 51.9879 47.3588C52.138 47.2758 52.2547 47.1572 52.3381 47.0054C52.4263 46.8489 52.4691 46.6686 52.4691 46.4646C52.4691 46.2607 52.4263 46.0781 52.3381 45.931C52.2547 45.7792 52.138 45.6606 51.9879 45.5776C51.8426 45.4946 51.6782 45.4519 51.4947 45.4519C51.3113 45.4519 51.1421 45.4946 50.9968 45.5776C50.8515 45.6606 50.7347 45.7792 50.6466 45.931C50.5584 46.0804 50.5155 46.2583 50.5155 46.4646C50.5155 46.671 50.5584 46.8489 50.6466 47.0054C50.7347 47.1572 50.8515 47.2758 50.9968 47.3588C51.1421 47.4418 51.3089 47.4845 51.4947 47.4845ZM51.4518 47.9422C51.1707 47.9422 50.9182 47.8806 50.6966 47.7572C50.4774 47.6339 50.3035 47.4608 50.1772 47.2402C50.0486 47.0173 49.9843 46.7611 49.9843 46.4646C49.9843 46.1682 50.0486 45.9144 50.1772 45.6962C50.3059 45.4733 50.4774 45.3025 50.6966 45.1792C50.9206 45.0558 51.1707 44.9942 51.4518 44.9942C51.6972 44.9942 51.9188 45.0487 52.1142 45.1578C52.3095 45.2669 52.4691 45.4306 52.5859 45.6488C52.7074 45.867 52.7669 46.1397 52.7669 46.467C52.7669 46.7943 52.7074 47.0671 52.5906 47.2853C52.4763 47.5035 52.3214 47.6695 52.1261 47.781C51.9283 47.8901 51.7044 47.9446 51.4518 47.9446V47.9422ZM47.9616 47.4845C48.1474 47.4845 48.3142 47.4418 48.4595 47.3588C48.6096 47.2758 48.7263 47.1572 48.8097 47.0054C48.8931 46.8489 48.936 46.6686 48.936 46.4646C48.936 46.2607 48.8931 46.0781 48.8097 45.931C48.7263 45.7792 48.6096 45.6606 48.4595 45.5776C48.3142 45.4946 48.1474 45.4519 47.9616 45.4519C47.7758 45.4519 47.609 45.4946 47.4637 45.5776C47.3183 45.6606 47.2016 45.7792 47.1134 45.931C47.0253 46.0804 46.9824 46.2583 46.9824 46.4646C46.9824 46.671 47.0253 46.8489 47.1134 47.0054C47.2016 47.1572 47.3183 47.2758 47.4637 47.3588C47.609 47.4418 47.7758 47.4845 47.9616 47.4845ZM47.9616 47.9422C47.6686 47.9422 47.4089 47.8782 47.1825 47.7525C46.9562 47.6244 46.7775 47.4513 46.6465 47.2283C46.5155 47.003 46.4488 46.7493 46.4488 46.4646C46.4488 46.18 46.5155 45.9239 46.6465 45.701C46.7775 45.478 46.9562 45.3072 47.1825 45.1839C47.4089 45.0558 47.6686 44.9942 47.9616 44.9942C48.2546 44.9942 48.5072 45.0582 48.7335 45.1839C48.9646 45.3072 49.1433 45.4804 49.2695 45.701C49.4006 45.9192 49.4673 46.1729 49.4673 46.4646C49.4673 46.7564 49.4006 47.0054 49.2695 47.2283C49.1409 47.4513 48.9622 47.6244 48.7335 47.7525C48.5072 47.8806 48.2499 47.9422 47.9616 47.9422ZM44.6191 47.9517C44.326 47.9517 44.0568 47.9043 43.809 47.8094C43.5636 47.7122 43.3516 47.5746 43.1682 47.4015C42.9895 47.2236 42.8489 47.0149 42.7465 46.7801C42.644 46.5429 42.594 46.2844 42.594 45.9998C42.594 45.7152 42.644 45.4567 42.7465 45.2195C42.8489 44.9823 42.9919 44.7783 43.1729 44.6028C43.3564 44.425 43.5684 44.2874 43.8138 44.1925C44.0616 44.0953 44.3332 44.0455 44.6238 44.0455C44.9145 44.0455 45.1908 44.0953 45.441 44.1973C45.6935 44.2945 45.9079 44.4416 46.0819 44.6384L45.7269 44.9823C45.5816 44.8305 45.4172 44.7167 45.2337 44.6432C45.0503 44.5673 44.8549 44.5293 44.6476 44.5293C44.4404 44.5293 44.2307 44.5649 44.0449 44.6384C43.8614 44.7119 43.7042 44.8139 43.5684 44.9444C43.4326 45.0748 43.3278 45.2313 43.2515 45.414C43.1777 45.5918 43.1419 45.7863 43.1419 45.9974C43.1419 46.2085 43.1777 46.4054 43.2515 46.5856C43.3278 46.7635 43.435 46.9177 43.5684 47.0505C43.7042 47.1809 43.8614 47.2829 44.0449 47.3564C44.2307 47.4299 44.4332 47.4655 44.6476 47.4655C44.8621 47.4655 45.0503 47.4299 45.2337 47.3564C45.4172 47.2805 45.5816 47.1643 45.7269 47.0078L46.0819 47.3517C45.9056 47.5485 45.6935 47.6979 45.441 47.7999C45.1932 47.9019 44.9192 47.9517 44.6191 47.9517ZM39.7136 47.909V43.8605H40.2402V47.909H39.7136ZM37.2335 47.9422C37.0191 47.9422 36.8285 47.9067 36.6641 47.8331C36.5045 47.7596 36.3783 47.66 36.2925 47.5343C36.2043 47.4039 36.1615 47.2568 36.1615 47.0932C36.1615 46.9295 36.1972 46.7943 36.271 46.6686C36.3473 46.5405 36.4712 46.4386 36.6379 46.3627C36.8095 46.2868 37.0406 46.2488 37.3288 46.2488H38.2485V46.6259H37.3503C37.0882 46.6259 36.9095 46.6686 36.819 46.7564C36.7285 46.8441 36.6808 46.9485 36.6808 47.0718C36.6808 47.2141 36.738 47.328 36.85 47.4157C36.9643 47.4987 37.1192 47.5414 37.3217 47.5414C37.5242 47.5414 37.691 47.4987 37.8363 47.411C37.9864 47.3232 38.0936 47.1975 38.1603 47.0291L38.2651 47.3896C38.196 47.5604 38.0722 47.6979 37.8982 47.7976C37.7219 47.8948 37.5028 47.9446 37.2359 47.9446L37.2335 47.9422ZM38.1865 47.909V47.2971L38.1603 47.1833V46.1421C38.1603 45.9192 38.0936 45.7484 37.9626 45.6298C37.8339 45.5065 37.6409 45.4448 37.3813 45.4448C37.2097 45.4448 37.0406 45.4733 36.8762 45.5326C36.7118 45.5871 36.5736 45.6606 36.4593 45.7555L36.2401 45.3618C36.3902 45.2408 36.5688 45.1507 36.7761 45.089C36.9882 45.0226 37.2097 44.9918 37.4384 44.9918C37.8363 44.9918 38.1436 45.089 38.358 45.2812C38.5725 45.4733 38.6821 45.7674 38.6821 46.1658V47.9114H38.1841L38.1865 47.909ZM33.8124 47.3303C34.0054 47.3303 34.1769 47.29 34.327 47.2094C34.4771 47.1287 34.5938 47.0196 34.6772 46.8773C34.7654 46.735 34.8082 46.5714 34.8082 46.3864C34.8082 46.2014 34.7654 46.0377 34.6772 45.8954C34.5938 45.7531 34.4771 45.644 34.327 45.5681C34.1769 45.4875 34.0054 45.4472 33.8124 45.4472C33.6194 45.4472 33.4455 45.4875 33.293 45.5681C33.1429 45.644 33.0238 45.7531 32.938 45.8954C32.8547 46.0377 32.8118 46.2014 32.8118 46.3864C32.8118 46.5714 32.8547 46.735 32.938 46.8773C33.0262 47.0196 33.1453 47.1311 33.293 47.2094C33.4455 47.29 33.6194 47.3303 33.8124 47.3303ZM33.7528 47.7881C33.4717 47.7881 33.2192 47.7288 32.9976 47.6126C32.7784 47.4916 32.6021 47.328 32.4711 47.1169C32.3424 46.9058 32.2781 46.6615 32.2781 46.3864C32.2781 46.1113 32.3424 45.8622 32.4711 45.6559C32.6021 45.4448 32.7784 45.2812 32.9976 45.1649C33.2215 45.0487 33.4717 44.9894 33.7528 44.9894C34.0006 44.9894 34.2269 45.0392 34.4318 45.1412C34.6367 45.2385 34.7987 45.3926 34.9202 45.599C35.0441 45.8053 35.106 46.0686 35.106 46.384C35.106 46.6995 35.0441 46.9556 34.9202 47.1643C34.7987 47.3707 34.6367 47.5272 34.4318 47.6339C34.2269 47.7359 34.0006 47.7857 33.7528 47.7857V47.7881ZM33.8171 49C33.5503 49 33.2906 48.9621 33.0381 48.8862C32.7903 48.8127 32.5878 48.7083 32.4306 48.5707L32.6831 48.1676C32.8189 48.2838 32.9833 48.3739 33.181 48.4403C33.3788 48.5091 33.5837 48.5447 33.8005 48.5447C34.1435 48.5447 34.3961 48.464 34.5557 48.3051C34.7153 48.1462 34.7963 47.9019 34.7963 47.5746V46.9627L34.8511 46.3911L34.8249 45.8124V45.0203H35.3228V47.5177C35.3228 48.0276 35.1942 48.4024 34.9393 48.6419C34.6844 48.8814 34.3103 49.0024 33.8171 49.0024V49ZM30.4293 47.9422C30.1196 47.9422 29.8457 47.8782 29.6074 47.7525C29.3739 47.6244 29.1905 47.4513 29.0595 47.2283C28.9308 47.0054 28.8689 46.7516 28.8689 46.4646C28.8689 46.1777 28.9308 45.9239 29.0547 45.701C29.1833 45.478 29.3549 45.3072 29.5741 45.1839C29.798 45.0558 30.0482 44.9942 30.3245 44.9942C30.6009 44.9942 30.8534 45.0558 31.0702 45.1792C31.2846 45.3025 31.4538 45.478 31.5753 45.7033C31.6992 45.9263 31.7611 46.1848 31.7611 46.4836C31.7611 46.505 31.7611 46.5311 31.7564 46.5595C31.7564 46.588 31.7564 46.6164 31.7516 46.6425H29.281V46.2654H31.4776L31.2632 46.3959C31.268 46.2109 31.2275 46.0449 31.1488 45.9002C31.0678 45.7555 30.9582 45.6417 30.8153 45.561C30.6771 45.478 30.5151 45.4353 30.3269 45.4353C30.1387 45.4353 29.9815 45.478 29.8385 45.561C29.6956 45.6417 29.5836 45.7555 29.505 45.9049C29.424 46.0496 29.3835 46.218 29.3835 46.4077V46.4955C29.3835 46.6876 29.4263 46.8607 29.5145 47.0125C29.605 47.1619 29.7313 47.2782 29.8933 47.3612C30.0553 47.4442 30.2388 47.4869 30.446 47.4869C30.6176 47.4869 30.7724 47.4584 30.9106 47.3991C31.0535 47.3398 31.1774 47.2544 31.2823 47.1382L31.5729 47.4774C31.4419 47.6292 31.2775 47.7454 31.0797 47.826C30.8868 47.9067 30.6676 47.947 30.427 47.947L30.4293 47.9422ZM25.9432 47.909V44.0905H26.4912V47.4347H28.5687V47.909H25.9432ZM20.5066 46.9556L20.6543 46.5192H22.8127L22.9724 46.9556H20.5066ZM19.768 47.909L21.5048 44.0905H22.048L23.7895 47.909H23.213L21.662 44.3965H21.8812L20.3303 47.909H19.7656H19.768Z" fill="white"/>
<path d="M6.67078 0C2.98756 0 0 2.97415 0 6.64085H0.476484C0.476484 3.23504 3.24962 0.474347 6.67078 0.474347V0ZM23.3477 0.474347C26.7689 0.474347 29.542 3.23504 29.542 6.64085H30.0185C30.0185 2.97415 27.031 0 23.3477 0V0.474347ZM29.542 31.5441C29.542 34.9499 26.7689 37.7106 23.3477 37.7106V38.1849C27.031 38.1849 30.0185 35.2108 30.0185 31.5441H29.542ZM6.67078 37.7106C3.24962 37.7106 0.476484 34.9499 0.476484 31.5441H0C0 35.2108 2.98756 38.1849 6.67078 38.1849V37.7106ZM0.476484 31.5441V6.64085H0V31.5441H0.476484ZM23.3477 37.7106H6.67078V38.1849H23.3477V37.7106ZM29.542 6.64085V31.5441H30.0185V6.64085H29.542ZM6.67078 0.474347H23.3477V0H6.67078V0.474347Z" fill="white"/>
<path d="M25.7417 4.83832H4.16406V5.54984H25.7417V4.83832Z" fill="white"/>
<path d="M25.5581 33.1473H3.98047V33.8589H25.5581V33.1473Z" fill="white"/>
<path d="M23.7441 33.4415V30.121H24.8686V33.4415H23.7441ZM20.9304 32.5687H21.4022C21.5618 32.5687 21.7 32.5378 21.8167 32.4785C21.9382 32.4192 22.0311 32.3291 22.0978 32.2129C22.1645 32.0919 22.1979 31.9473 22.1979 31.7765C22.1979 31.6057 22.1645 31.4658 22.0978 31.3496C22.0311 31.2334 21.9382 31.1432 21.8167 31.084C21.7 31.0247 21.5618 30.9938 21.4022 30.9938H20.9304V32.5687ZM19.8059 33.4415V30.121H21.4498C21.8215 30.121 22.1479 30.1898 22.4314 30.325C22.7149 30.4578 22.9341 30.6476 23.0937 30.8942C23.2533 31.1409 23.3319 31.435 23.3319 31.7765C23.3319 32.118 23.2533 32.4192 23.0937 32.6683C22.9341 32.9149 22.7149 33.107 22.4314 33.2422C22.1479 33.3751 21.8215 33.4415 21.4498 33.4415H19.8059ZM18.1406 33.4415V30.121H19.2651V33.4415H18.1406Z" fill="white"/>
<path d="M23.7441 33.4415V30.121H24.8686V33.4415H23.7441ZM20.9304 32.5687H21.4022C21.5618 32.5687 21.7 32.5378 21.8167 32.4785C21.9382 32.4192 22.0311 32.3291 22.0978 32.2129C22.1645 32.0919 22.1979 31.9473 22.1979 31.7765C22.1979 31.6057 22.1645 31.4658 22.0978 31.3496C22.0311 31.2334 21.9382 31.1432 21.8167 31.084C21.7 31.0247 21.5618 30.9938 21.4022 30.9938H20.9304V32.5687ZM19.8059 33.4415V30.121H21.4498C21.8215 30.121 22.1479 30.1898 22.4314 30.325C22.7149 30.4578 22.9341 30.6476 23.0937 30.8942C23.2533 31.1409 23.3319 31.435 23.3319 31.7765C23.3319 32.118 23.2533 32.4192 23.0937 32.6683C22.9341 32.9149 22.7149 33.107 22.4314 33.2422C22.1479 33.3751 21.8215 33.4415 21.4498 33.4415H19.8059ZM18.1406 33.4415V30.121H19.2651V33.4415H18.1406Z" fill="white"/>
<path d="M23.7441 33.4415V30.121H24.8686V33.4415H23.7441ZM20.9304 32.5687H21.4022C21.5618 32.5687 21.7 32.5378 21.8167 32.4785C21.9382 32.4192 22.0311 32.3291 22.0978 32.2129C22.1645 32.0919 22.1979 31.9473 22.1979 31.7765C22.1979 31.6057 22.1645 31.4658 22.0978 31.3496C22.0311 31.2334 21.9382 31.1432 21.8167 31.084C21.7 31.0247 21.5618 30.9938 21.4022 30.9938H20.9304V32.5687ZM19.8059 33.4415V30.121H21.4498C21.8215 30.121 22.1479 30.1898 22.4314 30.325C22.7149 30.4578 22.9341 30.6476 23.0937 30.8942C23.2533 31.1409 23.3319 31.435 23.3319 31.7765C23.3319 32.118 23.2533 32.4192 23.0937 32.6683C22.9341 32.9149 22.7149 33.107 22.4314 33.2422C22.1479 33.3751 21.8215 33.4415 21.4498 33.4415H19.8059ZM18.1406 33.4415V30.121H19.2651V33.4415H18.1406Z" fill="#EB4B53"/>
<path d="M20.8032 20.7835C19.6049 21.9907 17.9777 22.6714 16.2766 22.6738C14.578 22.6785 12.946 22.005 11.7405 20.8049C10.535 19.6048 9.85601 17.973 9.85363 16.2701C9.84886 14.5672 10.5207 12.9331 11.7191 11.7259C14.3159 9.13594 18.2064 9.18337 20.839 11.8326C22.0135 13.0279 22.6711 14.6384 22.6639 16.3152C22.6568 17.992 21.9873 19.5976 20.8032 20.7835ZM22.6067 10.2791C19.2118 6.78555 13.2629 6.67882 9.95846 10.0514C6.65404 13.424 6.72074 19.1091 10.0585 22.4651L10.0943 22.503L4.99825 29.2127C4.81242 29.4569 4.73142 29.7653 4.77192 30.0688C4.81242 30.3724 4.97205 30.6476 5.21744 30.8349C5.46044 31.0199 5.76777 31.1029 6.07272 31.0602C6.37529 31.0199 6.65165 30.8586 6.83748 30.6143L11.9359 23.9047C13.5964 24.8321 15.5119 25.1949 17.3964 24.9388C19.2809 24.6826 21.0296 23.8193 22.3852 22.4817C25.8039 19.0688 25.8992 13.6683 22.6067 10.2791Z" fill="#EB4B53"/>
<path d="M19.4714 17.1832H20.4243C20.553 17.1832 20.5554 17.1832 20.4958 17.067C20.1766 16.4717 19.8573 15.8764 19.5404 15.2835C19.5238 15.2526 19.5166 15.2005 19.469 15.2028C19.4213 15.2052 19.4237 15.2503 19.4094 15.2811C19.0878 15.8764 18.7662 16.4741 18.4469 17.0741C18.3921 17.1785 18.3969 17.1832 18.5184 17.1832H19.4714ZM12.8578 17.1832H13.7917C13.9441 17.1832 13.9441 17.1832 13.875 17.0528C13.5606 16.4646 13.2461 15.8764 12.9292 15.2882C12.9125 15.2574 12.9006 15.2052 12.8625 15.2028C12.822 15.2028 12.8053 15.2574 12.7887 15.293C12.467 15.8859 12.1502 16.4812 11.8309 17.0741C11.7833 17.1619 11.8023 17.1832 11.8976 17.1832C12.2145 17.1785 12.5361 17.1832 12.8578 17.1832ZM16.3956 12.7908C16.9365 12.7908 17.4749 12.8619 17.9966 12.9971C18.2921 13.0825 18.5779 13.194 18.8495 13.3315C18.9901 13.4074 19.1426 13.4667 19.2998 13.5023C19.5309 13.5355 19.7692 13.5023 19.9812 13.4051C20.0884 13.3505 20.2075 13.3292 20.3266 13.341C20.4243 13.36 20.5149 13.4098 20.5839 13.4809C20.653 13.5545 20.6959 13.647 20.7102 13.7442C20.7221 13.8367 20.7031 13.9316 20.6578 14.0146C20.6125 14.0976 20.5411 14.164 20.4553 14.202C20.3052 14.2755 20.1432 14.3324 19.9788 14.3656C19.905 14.3798 19.874 14.3964 19.9169 14.4818C20.3386 15.2858 20.7579 16.0922 21.1724 16.8986C21.1938 16.9318 21.2105 16.965 21.2248 17.003C21.2367 17.0646 21.2748 17.1192 21.3273 17.1524C21.3797 17.188 21.444 17.1998 21.5059 17.188C21.6346 17.1761 21.6965 17.271 21.6679 17.4014C21.5869 17.7358 21.3773 18.0252 21.0866 18.2078C20.6983 18.4711 20.2456 18.6276 19.7763 18.6537C19.1831 18.7201 18.5803 18.6063 18.0514 18.3288C17.7917 18.1959 17.5702 17.9967 17.4106 17.7524C17.3462 17.6481 17.2986 17.5342 17.2748 17.4156C17.2438 17.2662 17.3034 17.1761 17.4534 17.1903C17.6035 17.2046 17.6464 17.1382 17.7036 17.0291C18.1372 16.1847 18.5779 15.3428 19.0187 14.5032C19.0449 14.451 19.0759 14.3988 18.983 14.3917C18.5494 14.3514 18.1539 14.1854 17.7536 14.0359C17.513 13.9363 17.2581 13.8723 16.9984 13.8486C16.9269 13.8486 16.8936 13.8604 16.9031 13.9316V19.2253C16.9031 19.3296 16.9222 19.3747 17.0389 19.3937C17.189 19.4198 17.3272 19.4933 17.4344 19.6C17.5416 19.7091 17.6107 19.849 17.6321 19.9985C17.6464 20.1028 17.6869 20.1147 17.7727 20.1123C17.9728 20.1123 18.1706 20.1076 18.3707 20.1123C18.5398 20.1171 18.7018 20.1787 18.8329 20.2831C18.9639 20.3898 19.0568 20.5368 19.0949 20.7005C19.1235 20.8357 19.1068 20.857 18.9734 20.857H13.3461C13.2104 20.857 13.1961 20.8357 13.2246 20.7005C13.2794 20.423 13.5463 20.0767 13.9608 20.1076C14.1681 20.1242 14.3754 20.1076 14.5826 20.1076C14.6541 20.1076 14.6803 20.0862 14.6922 20.0127C14.7137 19.8538 14.7851 19.7067 14.8971 19.5929C15.0091 19.4791 15.1568 19.4055 15.314 19.3818C15.4093 19.3676 15.4189 19.3273 15.4189 19.249V13.9695C15.4189 13.8652 15.395 13.8391 15.2831 13.8486C14.8971 13.8794 14.5564 14.0454 14.1991 14.1711C13.9275 14.2755 13.644 14.3466 13.3557 14.3846C13.2747 14.3917 13.2604 14.4178 13.2985 14.4937C13.7535 15.3617 14.2062 16.2298 14.6565 17.1026C14.666 17.1287 14.6851 17.1524 14.7089 17.1666C14.7327 17.1808 14.7613 17.188 14.7899 17.1832C14.8209 17.1832 14.8518 17.1832 14.8828 17.1832C14.909 17.1832 14.9376 17.1832 14.9614 17.1975C14.9853 17.2117 15.0067 17.2259 15.0234 17.2473C15.0401 17.2686 15.0496 17.2947 15.0543 17.3208C15.0591 17.3469 15.0543 17.3753 15.0472 17.399C14.9662 17.7335 14.7589 18.0228 14.4659 18.2054C14.0799 18.4711 13.6273 18.6252 13.1603 18.6561C12.5623 18.7225 11.9572 18.6086 11.4259 18.3288C11.1686 18.1983 10.9518 18.0015 10.7946 17.7572C10.7303 17.6528 10.6826 17.539 10.6564 17.418C10.6254 17.2662 10.685 17.1761 10.8327 17.188C10.8875 17.1951 10.9423 17.1832 10.9876 17.1548C11.0328 17.1263 11.0686 17.0812 11.0828 17.0291C11.5141 16.1871 11.9501 15.3475 12.3908 14.5103C12.4384 14.4178 12.4384 14.3822 12.3265 14.3656C12.1716 14.3395 12.0215 14.2873 11.8833 14.2138C11.8285 14.1901 11.7785 14.1545 11.7356 14.1118C11.6951 14.0691 11.6618 14.017 11.6403 13.96C11.6189 13.9031 11.6094 13.8438 11.6117 13.7822C11.6117 13.7229 11.6284 13.6636 11.6546 13.609C11.7047 13.4999 11.7952 13.4145 11.9072 13.3718C12.0191 13.3292 12.143 13.3292 12.255 13.3766C12.4075 13.4406 12.5647 13.4857 12.7267 13.5141C12.9149 13.5379 13.1031 13.507 13.2723 13.424C13.6702 13.2414 14.0609 13.0517 14.4921 12.9568C14.7327 12.9022 14.9733 12.8619 15.2187 12.8382C15.4665 12.8097 15.7143 12.7979 15.9644 12.7979L16.3933 12.7931L16.3956 12.7908Z" fill="white"/>
<path d="M16.1686 12.5179C16.5897 12.5179 16.931 12.1781 16.931 11.759C16.931 11.3398 16.5897 11 16.1686 11C15.7476 11 15.4062 11.3398 15.4062 11.759C15.4062 12.1781 15.7476 12.5179 16.1686 12.5179Z" fill="white"/>
<path d="M0.236309 46.6045H17.628V46.3674H0.236309V46.6045ZM0.236309 46.3674C0.169601 46.3674 0.117188 46.4195 0.117188 46.486C0.117188 46.5524 0.169601 46.6045 0.236309 46.6045V46.3674Z" fill="white"/>
<path d="M93.3926 46.6045H110.784V46.3674H93.3926V46.6045ZM93.3926 46.3674C93.3259 46.3674 93.2734 46.4195 93.2734 46.486C93.2734 46.5524 93.3259 46.6045 93.3926 46.6045V46.3674Z" fill="white"/>
<path fill-rule="evenodd" clip-rule="evenodd" d="M23.5779 21.0159C23.4191 21.2592 23.2471 21.4967 23.062 21.7274H25.5581V21.0159H23.5779ZM8.90219 21.0159C9.05704 21.2602 9.22483 21.4978 9.40552 21.7274H3.98047V21.0159H8.90219ZM7.55131 16.9721C7.57179 17.2102 7.60151 17.4476 7.64045 17.6836H4.16406V16.9721H7.55131ZM7.8761 13.6399C7.94584 13.3997 8.02576 13.1623 8.11589 12.9283H4.16406V13.6399H7.8761ZM24.6187 13.6399C24.5429 13.3997 24.4562 13.1623 24.3586 12.9283H25.7417V13.6399H24.6187ZM25.7417 16.9721H24.981C24.9602 17.21 24.9295 17.4474 24.8891 17.6836H25.7417V16.9721ZM20.8351 8.88214C21.1897 9.09351 21.5312 9.3307 21.856 9.59366H25.7417V8.88214H20.8351ZM11.4179 8.88214C11.0787 9.09334 10.7541 9.3305 10.4475 9.59366H4.16406V8.88214H11.4179ZM7.61201 25.7713L8.15241 25.0597H3.98047V25.7713H7.61201ZM11.0582 25.0597L10.5176 25.7713H25.5581V25.0597H11.0582ZM3.98047 29.1035H5.08113L4.99825 29.2127C4.86429 29.3888 4.7848 29.5982 4.76604 29.8151H3.98047V29.1035ZM7.98549 29.1035L7.44483 29.8151H25.5581V29.1035H7.98549Z" fill="white"/>
</g>
<defs>
<clipPath id="clip0_402_217">
<rect width="110.783" height="49" fill="white"/>
</clipPath>
</defs>
</svg>
